<?xml version="1.0" encoding="utf-8"?>
<!-- Svg Vector Icons : http://www.sfont.cn -->
<!DOCTYPE svg PUBLIC "-//W3C//DTD SVG 1.1//EN" "http://www.w3.org/Graphics/SVG/1.1/DTD/svg11.dtd">
<svg version="1.1" xmlns="http://www.w3.org/2000/svg" xmlns:xlink="http://www.w3.org/1999/xlink" x="0px" y="0px" viewBox="0 0 1000 1000" enable-background="new 0 0 1000 1000" xml:space="preserve">
<metadata> Svg Vector Icons : http://www.sfont.cn </metadata>
<g><g><path d="M939.6,805.4c-13-49.7-95.3-364.3-169.8-509.5c-86.9-169.3-206-185.9-265.4-185.9c-59.6,0-176.9,16.6-263.8,185.9c-74.5,145.2-157,459.7-169.8,509.5H10v84.5h980v-84.5H939.6z M505.7,260.7c-0.2,0-0.5,0-0.5,0h0C505.3,260.7,505.5,260.7,505.7,260.7z M310.1,412.2c55.1-97.4,121.1-138.7,195.1-138.7c74.1,0,140.1,41.3,195.2,138.7c55.2,97.1,126.7,317.7,150.4,393.1h-15.7c-21.9-59.7-105.6-285.4-147.4-354.1c-44-72.2-103.3-109.6-181.2-114.5h-2.5c-77.9,4.9-137.2,42.4-181.2,114.5c-41.9,68.7-125.6,294.4-147.4,354.1h-15.8C183.4,729.9,255,509.3,310.1,412.2z M795.4,805.4H214.9c27.1-73.1,102.7-273.9,139.7-334.9c37.4-61.4,85.3-92.1,150.5-96.6c65.4,4.5,113.2,35.2,150.7,96.6C692.9,531.5,768.4,732.3,795.4,805.4z"/></g><g></g><g></g><g></g><g></g><g></g><g></g><g></g><g></g><g></g><g></g><g></g><g></g><g></g><g></g><g></g></g>
</svg>